{
    "asset" : {
        "generator" : "Khronos glTF Blender I/O v1.5.17",
        "version" : "2.0"
    },
    "scene" : 0,
    "scenes" : [
        {
            "name" : "Scene",
            "nodes" : [
                4
            ]
        }
    ],
    "nodes" : [
        {
            "name" : "Bone.003",
            "rotation" : [
                -0.025710025802254677,
                -0.10903652012348175,
                -0.26370859146118164,
                0.9580750465393066
            ],
            "scale" : [
                1.0000001192092896,
                1.0000001192092896,
                1.0000001192092896
            ],
            "translation" : [
                1.482213747294736e-06,
                8.238454818725586,
                2.28699917670383e-07
            ]
        },
        {
            "children" : [
                0
            ],
            "name" : "Bone.002",
            "rotation" : [
                0.015878846868872643,
                -0.0018391769845038652,
                0.27495184540748596,
                0.9613251090049744
            ],
            "scale" : [
                1,
                1,
                0.9999999403953552
            ],
            "translation" : [
                9.23787752071803e-07,
                5.936583995819092,
                -4.597823455299022e-09
            ]
        },
        {
            "children" : [
                1
            ],
            "name" : "Bone",
            "rotation" : [
                0.009312405250966549,
                -0.015131678432226181,
                0.7108269929885864,
                0.7031424641609192
            ],
            "scale" : [
                0.9999998211860657,
                0.9999997019767761,
                1.0000001192092896
            ],
            "translation" : [
                14.865227699279785,
                9.100539207458496,
                0.1062910333275795
            ]
        },
        {
            "mesh" : 0,
            "name" : "Cube",
            "skin" : 0
        },
        {
            "children" : [
                3,
                2
            ],
            "name" : "Armature"
        }
    ],
    "materials" : [
        {
            "doubleSided" : true,
            "name" : "Material",
            "pbrMetallicRoughness" : {
                "baseColorFactor" : [
                    0.800000011920929,
                    0.800000011920929,
                    0.800000011920929,
                    1
                ],
                "metallicFactor" : 0,
                "roughnessFactor" : 0.4000000059604645
            }
        }
    ],
    "meshes" : [
        {
            "name" : "Cube",
            "primitives" : [
                {
                    "attributes" : {
                        "POSITION" : 0,
                        "NORMAL" : 1,
                        "TEXCOORD_0" : 2,
                        "JOINTS_0" : 3,
                        "WEIGHTS_0" : 4
                    },
                    "indices" : 5,
                    "material" : 0
                }
            ]
        }
    ],
    "skins" : [
        {
            "inverseBindMatrices" : 6,
            "joints" : [
                2,
                1,
                0
            ],
            "name" : "Armature"
        }
    ],
    "accessors" : [
        {
            "bufferView" : 0,
            "componentType" : 5126,
            "count" : 4040,
            "max" : [
                15.051608085632324,
                10.150833129882812,
                1.0000003576278687
            ],
            "min" : [
                0.6219643354415894,
                0.009863615036010742,
                -1
            ],
            "type" : "VEC3"
        },
        {
            "bufferView" : 1,
            "componentType" : 5126,
            "count" : 4040,
            "type" : "VEC3"
        },
        {
            "bufferView" : 2,
            "componentType" : 5126,
            "count" : 4040,
            "type" : "VEC2"
        },
        {
            "bufferView" : 3,
            "componentType" : 5121,
            "count" : 4040,
            "type" : "VEC4"
        },
        {
            "bufferView" : 4,
            "componentType" : 5126,
            "count" : 4040,
            "type" : "VEC4"
        },
        {
            "bufferView" : 5,
            "componentType" : 5123,
            "count" : 5868,
            "type" : "SCALAR"
        },
        {
            "bufferView" : 6,
            "componentType" : 5126,
            "count" : 3,
            "type" : "MAT4"
        }
    ],
    "bufferViews" : [
        {
            "buffer" : 0,
            "byteLength" : 48480,
            "byteOffset" : 0
        },
        {
            "buffer" : 0,
            "byteLength" : 48480,
            "byteOffset" : 48480
        },
        {
            "buffer" : 0,
            "byteLength" : 32320,
            "byteOffset" : 96960
        },
        {
            "buffer" : 0,
            "byteLength" : 16160,
            "byteOffset" : 129280
        },
        {
            "buffer" : 0,
            "byteLength" : 64640,
            "byteOffset" : 145440
        },
        {
            "buffer" : 0,
            "byteLength" : 11736,
            "byteOffset" : 210080
        },
        {
            "buffer" : 0,
            "byteLength" : 192,
            "byteOffset" : 221816
        }
    ],
    "buffers" : [
        {
            "byteLength" : 222008,
            "uri" : "data:application/octet-stream;base64,"
        }
    ]
}
