{
    "asset" : {
        "generator" : "Khronos glTF Blender I/O v1.4.40",
        "version" : "2.0"
    },
    "scene" : 0,
    "scenes" : [
        {
            "name" : "Scene",
            "nodes" : [
                0
            ]
        }
    ],
    "nodes" : [
        {
            "mesh" : 0,
            "name" : "Plane-col",
            "scale" : [
                22.20372772216797,
                22.20372772216797,
                22.20372772216797
            ]
        }
    ],
    "meshes" : [
        {
            "name" : "Plane",
            "primitives" : [
                {
                    "attributes" : {
                        "POSITION" : 0,
                        "NORMAL" : 1,
                        "TEXCOORD_0" : 2
                    },
                    "indices" : 3
                }
            ]
        }
    ],
    "accessors" : [
        {
            "bufferView" : 0,
            "componentType" : 5126,
            "count" : 14487,
            "max" : [
                1.1054617166519165,
                0.4804146885871887,
                1.1054617166519165
            ],
            "min" : [
                -1.1054617166519165,
                0,
                -1.1054617166519165
            ],
            "type" : "VEC3"
        },
        {
            "bufferView" : 1,
            "componentType" : 5126,
            "count" : 14487,
            "type" : "VEC3"
        },
        {
            "bufferView" : 2,
            "componentType" : 5126,
            "count" : 14487,
            "type" : "VEC2"
        },
        {
            "bufferView" : 3,
            "componentType" : 5123,
            "count" : 24576,
            "type" : "SCALAR"
        }
    ],
    "bufferViews" : [
        {
            "buffer" : 0,
            "byteLength" : 173844,
            "byteOffset" : 0
        },
        {
            "buffer" : 0,
            "byteLength" : 173844,
            "byteOffset" : 173844
        },
        {
            "buffer" : 0,
            "byteLength" : 115896,
            "byteOffset" : 347688
        },
        {
            "buffer" : 0,
            "byteLength" : 49152,
            "byteOffset" : 463584
        }
    ],
    "buffers" : [
        {
            "byteLength" : 512736,
            "uri" : "data:application/octet-stream;base64,"
        }
    ]
}
